<?xml version="1.0" standalone="no"?>
<!DOCTYPE svg PUBLIC "-//W3C//DTD SVG 20010904//EN"
 "http://www.w3.org/TR/2001/REC-SVG-20010904/DTD/svg10.dtd">
<svg version="1.0" xmlns="http://www.w3.org/2000/svg"
 width="180.000000pt" height="168.000000pt" viewBox="0 0 180.000000 168.000000"
 preserveAspectRatio="xMidYMid meet">
<metadata>
Created by potrace 1.10, written by Peter Selinger 2001-2011
</metadata>
<g transform="translate(0.000000,168.000000) scale(0.100000,-0.100000)"
fill="#000000" stroke="none">
<path d="M1197 1537 c-26 -23 -47 -47 -47 -54 0 -10 -292 -425 -321 -458 -6
-6 -16 -3 -26 8 -16 15 -16 17 -1 17 16 0 65 67 56 76 -3 2 -27 6 -54 8 -63 5
-71 26 -10 26 54 0 60 17 21 55 -46 47 -126 20 -141 -48 -3 -17 -15 -38 -26
-46 -11 -7 -17 -19 -14 -27 3 -8 0 -14 -7 -14 -12 0 -23 -19 -159 -280 -45
-85 -85 -161 -91 -168 -5 -7 14 0 43 15 42 22 69 28 141 31 49 3 89 1 89 -2 0
-4 -5 -17 -11 -28 -9 -17 -8 -23 5 -30 9 -5 16 -15 16 -23 0 -10 -16 -14 -66
-14 -88 0 -147 -29 -191 -94 -125 -186 52 -420 268 -356 109 33 187 175 149
273 -9 25 -9 26 33 26 33 -1 38 -3 25 -11 -24 -14 -23 -24 6 -37 21 -9 34 -3
117 53 111 74 146 109 155 153 5 27 1 37 -28 66 -34 34 -34 35 -27 96 4 34 9
63 11 66 3 2 10 -13 16 -33 28 -93 115 -153 221 -153 74 0 122 21 174 79 134
148 7 404 -188 378 -59 -9 -133 -54 -168 -103 -27 -38 -32 -41 -54 -31 -16 7
-20 14 -13 21 14 14 13 18 -15 56 l-25 33 -33 -35 -34 -36 -72 6 -71 7 157
219 c86 120 166 223 178 228 16 7 71 116 62 124 -1 1 -23 -17 -50 -39z m245
-575 c35 -33 41 -45 46 -90 4 -44 1 -58 -21 -91 -35 -53 -101 -79 -156 -62
-36 10 -109 77 -97 88 2 3 29 -2 59 -11 30 -9 66 -16 80 -16 34 0 66 29 73 67
5 27 1 37 -24 63 -36 35 -69 38 -105 10 -18 -14 -34 -19 -51 -14 -32 8 -33 24
-3 51 37 33 60 42 110 43 42 0 53 -5 89 -38z m-589 -28 c4 -4 -2 -19 -13 -35
-11 -15 -23 -41 -26 -58 -10 -51 -44 -34 -44 21 0 44 59 96 83 72z m385 -70
c12 -4 22 -10 22 -14 0 -10 -49 0 -56 11 -6 10 2 11 34 3z m-625 -370 c9 -9
-21 -64 -35 -64 -27 0 -58 -44 -58 -81 0 -43 35 -79 77 -79 27 0 83 50 83 73
0 17 44 49 54 40 3 -4 6 -24 6 -46 0 -33 -7 -46 -44 -83 -39 -39 -48 -44 -90
-44 -79 0 -139 46 -152 116 -9 47 1 78 37 119 34 39 104 67 122 49z"/>
<path d="M675 1516 c-11 -8 -16 -20 -12 -29 5 -13 -3 -17 -36 -21 -243 -31
-242 -30 -242 -50 0 -16 -13 -23 -65 -36 -72 -18 -213 -70 -207 -76 5 -5 181
15 262 30 50 9 59 14 57 30 -3 18 2 19 110 13 62 -4 122 -8 133 -9 15 -2 20 3
20 22 0 20 6 26 30 32 42 9 163 -7 232 -33 32 -11 65 -23 73 -25 14 -5 90 83
90 104 0 13 -44 31 -114 47 -81 19 -305 20 -331 1z"/>
<path d="M705 1286 c-44 -20 -74 -57 -77 -96 -4 -47 27 -56 37 -11 14 67 112
96 162 49 17 -16 26 -19 34 -11 44 44 -87 101 -156 69z"/>
</g>
</svg>
